<?xml version="1.0" standalone="no"?>
<!DOCTYPE svg PUBLIC "-//W3C//DTD SVG 20010904//EN"
 "http://www.w3.org/TR/2001/REC-SVG-20010904/DTD/svg10.dtd">
<svg version="1.0" xmlns="http://www.w3.org/2000/svg"
 width="2000.000000pt" height="2000.000000pt" viewBox="0 0 2000.000000 2000.000000"
 preserveAspectRatio="xMidYMid meet">
<metadata>
Created by potrace 1.14, written by Peter Selinger 2001-2017
</metadata>
<g transform="translate(0.000000,2000.000000) scale(0.100000,-0.100000)"
fill="#000000" stroke="none">
<path d="M12930 14760 l0 -340 340 0 340 0 0 295 c0 314 -5 351 -48 374 -14 7
-127 11 -326 11 l-306 0 0 -340z"/>
<path d="M6665 14931 c-43 -19 -91 -68 -106 -109 -5 -14 -9 -928 -9 -2230 l0
-2205 25 -43 c15 -26 43 -54 69 -69 l43 -25 3313 0 3313 0 43 25 c26 15 54 43
69 69 l25 43 0 1846 0 1847 -435 0 -436 0 3 435 3 435 -2940 0 c-2831 0 -2942
-1 -2980 -19z"/>
<path d="M9199 10020 c-32 -28 -327 -437 -329 -456 -1 -11 -2 -88 -1 -172 l1
-154 29 -29 29 -29 1072 0 1072 0 29 29 29 29 1 154 c1 84 0 161 -1 172 -2 19
-326 466 -338 466 -4 0 -360 1 -791 3 -686 2 -787 0 -802 -13z"/>
<path d="M5341 8237 c-160 -14 -290 -76 -398 -191 -78 -83 -135 -194 -159
-311 -22 -105 -15 -302 14 -391 63 -199 209 -350 402 -414 90 -30 285 -38 390
-16 187 39 333 152 414 319 25 50 48 107 51 125 l7 32 -201 0 c-111 0 -201 -4
-201 -8 0 -22 -80 -97 -124 -118 -106 -49 -245 -22 -314 62 -54 65 -75 135
-76 244 0 109 22 178 76 244 61 75 184 106 290 74 44 -13 116 -72 137 -112
l14 -26 199 0 200 0 -7 33 c-3 17 -26 74 -51 124 -116 240 -354 358 -663 330z"/>
<path d="M6720 8235 c-300 -60 -512 -309 -528 -620 -13 -263 106 -496 317
-622 279 -167 642 -120 858 111 142 151 208 382 170 591 -20 109 -50 182 -109
271 -145 217 -430 325 -708 269z m301 -361 c129 -72 184 -259 129 -438 -39
-126 -139 -196 -280 -196 -126 0 -215 53 -267 157 -37 76 -45 221 -17 309 44
139 145 207 300 201 68 -3 90 -8 135 -33z"/>
<path d="M7710 7571 c0 -425 4 -661 10 -663 5 -1 89 -2 185 0 l175 3 2 355 3
355 119 -348 c65 -191 122 -352 127 -357 9 -10 301 -8 310 2 4 4 57 156 119
337 62 182 116 337 121 345 5 9 9 -134 9 -337 l0 -352 175 -3 c96 -2 180 -1
185 0 6 2 10 238 10 663 l0 659 -224 0 c-204 0 -224 -2 -231 -17 -3 -10 -74
-198 -157 -418 -83 -220 -153 -403 -157 -407 -3 -3 -64 145 -136 330 -71 185
-145 376 -163 425 l-34 87 -224 0 -224 0 0 -659z"/>
<path d="M9470 8213 c-2 -146 1 -1297 4 -1300 5 -6 347 -6 352 0 3 3 6 101 7
218 l2 214 145 6 c228 10 313 39 415 143 76 78 106 147 113 265 11 192 -68
341 -222 416 -97 47 -164 55 -503 55 -291 0 -313 -1 -313 -17z m596 -299 c92
-44 90 -212 -2 -250 -25 -10 -64 -14 -132 -12 l-97 3 -3 138 -3 137 102 0 c73
0 111 -5 135 -16z"/>
<path d="M10653 7783 c3 -388 6 -456 21 -508 54 -186 184 -313 367 -362 87
-23 262 -22 349 1 198 53 340 198 385 389 12 50 15 153 15 493 l1 429 -181 3
-180 2 0 -367 c-1 -416 -6 -486 -44 -543 -38 -57 -77 -75 -166 -75 -91 0 -133
22 -170 87 l-25 43 -3 428 -3 427 -185 0 -186 0 5 -447z"/>
<path d="M11920 8085 l0 -145 175 0 175 0 0 -514 c0 -330 4 -516 10 -518 5 -1
89 -2 185 0 l175 3 0 514 0 515 175 0 175 0 0 145 0 145 -535 0 -535 0 0 -145z"/>
<path d="M13130 7570 l0 -660 416 -2 c228 -2 418 0 422 4 4 4 6 70 4 147 l-3
141 -235 0 -234 0 0 120 0 120 210 0 210 0 0 140 0 140 -210 0 -210 0 0 110 0
110 235 0 235 0 1 108 c1 59 2 116 2 127 1 60 37 55 -423 55 l-420 0 0 -660z"/>
<path d="M14160 7581 c0 -358 -1 -654 -2 -658 -2 -5 80 -9 182 -11 l185 -2 -2
240 -2 240 22 0 c19 0 42 -37 151 -240 l129 -240 204 0 c111 0 203 3 203 8 0
4 -9 21 -19 38 -57 94 -261 454 -261 461 0 4 25 19 56 32 108 47 187 143 214
260 16 68 8 189 -16 254 -41 107 -141 198 -264 239 -61 21 -87 22 -422 26
l-358 3 0 -650z m626 323 c43 -21 67 -65 67 -124 0 -55 -15 -85 -56 -110 -27
-17 -51 -20 -154 -20 l-121 0 -1 135 -2 135 117 0 c87 0 125 -4 150 -16z"/>
<path d="M7171 6320 c-154 -24 -269 -109 -301 -225 -20 -70 -9 -174 24 -230
49 -83 136 -127 367 -185 151 -38 197 -59 238 -105 31 -36 33 -42 29 -94 -5
-50 -9 -59 -47 -92 -53 -47 -118 -64 -236 -63 -108 2 -223 35 -303 88 l-52 35
-31 -61 -31 -61 23 -19 c44 -36 163 -86 241 -102 147 -30 331 -16 428 34 157
80 218 276 127 411 -53 79 -132 118 -355 175 -136 35 -214 67 -245 102 -28 31
-38 80 -26 126 39 143 294 181 512 77 l59 -28 19 44 c37 88 38 86 -38 120 -37
17 -92 36 -122 42 -76 16 -216 21 -280 11z"/>
<path d="M8160 6320 c-130 -20 -225 -78 -277 -167 -22 -37 -28 -62 -31 -129
-4 -75 -2 -89 22 -138 48 -98 124 -141 355 -201 226 -58 280 -92 288 -182 9
-89 -60 -152 -190 -174 -132 -22 -315 21 -415 97 -18 14 -34 24 -35 23 -1 -2
-15 -31 -31 -64 l-28 -59 24 -19 c154 -126 503 -156 680 -60 124 67 182 205
144 337 -34 118 -117 171 -362 235 -172 45 -234 71 -269 112 -75 89 -10 218
125 248 111 25 251 6 363 -49 l58 -29 8 22 c5 12 16 40 25 61 20 47 14 56 -53
85 -113 48 -283 70 -401 51z"/>
<path d="M6086 6278 c-12 -30 -164 -365 -380 -842 -43 -94 -84 -185 -91 -203
l-14 -33 83 0 82 0 61 138 60 137 295 3 294 2 61 -137 60 -138 87 -3 86 -3
-36 78 c-19 43 -133 293 -252 556 l-216 477 -83 0 -83 0 -14 -32z m219 -408
c63 -144 115 -265 115 -266 0 -2 -106 -4 -235 -4 -142 0 -235 4 -235 9 0 9
214 504 227 524 3 5 7 7 9 4 2 -2 56 -122 119 -267z"/>
<path d="M8910 5755 l0 -555 405 0 405 0 0 70 0 70 -325 0 -325 0 0 180 0 180
280 0 280 0 0 65 0 65 -280 0 -280 0 0 175 0 175 315 0 315 0 0 65 0 65 -395
0 -395 0 0 -555z"/>
<path d="M9980 5755 l0 -555 75 0 75 0 0 403 0 402 198 -330 198 -330 44 0 43
0 196 329 196 329 3 -401 2 -402 75 0 75 0 0 555 0 555 -67 0 -68 -1 -224
-384 c-137 -235 -228 -382 -234 -376 -5 5 -109 177 -231 383 l-221 373 -68 3
-67 3 0 -556z"/>
<path d="M11500 5755 l0 -555 303 0 c166 0 331 5 367 11 124 19 220 81 259
164 31 66 29 191 -3 261 -25 54 -81 107 -133 126 -40 14 -41 20 -8 38 31 16
71 67 91 115 18 44 18 175 0 219 -20 47 -73 104 -120 128 -85 43 -125 48 -448
48 l-308 0 0 -555z m550 424 c92 -15 140 -44 169 -102 33 -66 24 -127 -28
-178 -58 -59 -110 -69 -343 -69 l-198 0 0 173 c0 96 3 177 7 180 10 11 322 8
393 -4z m122 -499 c62 -22 98 -59 112 -114 24 -95 -5 -163 -90 -206 -48 -24
-56 -25 -296 -28 l-248 -4 0 187 0 187 243 -5 c166 -2 254 -8 279 -17z"/>
<path d="M12700 5755 l0 -555 380 0 380 0 0 70 0 70 -300 0 -300 0 0 485 0
485 -80 0 -80 0 0 -555z"/>
<path d="M13383 6273 c13 -21 112 -183 221 -361 l196 -323 0 -194 0 -195 80 0
80 0 0 193 0 192 219 360 219 360 -76 3 c-52 2 -79 -1 -87 -10 -7 -7 -88 -138
-180 -291 -112 -185 -171 -273 -176 -265 -5 7 -84 138 -176 290 l-168 278 -88
0 -87 0 23 -37z"/>
</g>
</svg>
